# xmcd
#
# Track frame offsets: 
#        150
#        24904
#        39810
#        62310
#        80310
#        94794
#        114341
#        125588
#        135010
#        142323
#        165949
#        180785
#        209964
#        237526
#        261697
#        279136
#        305045
#        319635
#
# Disc length: 4453 seconds
#
# Revision: 0
# Processed by: cddbd v1.5.1PL0 Copyright (c) Steve Scherf et al.
# Submitted via: ExactAudioCopy v0.95a5
#
DISCID=ee116312
DTITLE=Various Artist - Black Strobe - The Other Side Paris
DYEAR=2005
DGENRE=Electronic
TTITLE0=Black Strobe - Intro
TTITLE1=Solid Groove - This is Sick
TTITLE2=Martini Bros - Darkroom
TTITLE3=Hell - Jack Your Body
TTITLE4=Front 242 - Operating Tracks (Instro)
TTITLE5=Bauhaus - Terror Couple Kill Colonel
TTITLE6=DS - Like it, Like That
TTITLE7=Sun God - Return 2 Saturn
TTITLE8=Midfield General - Error Dub
TTITLE9=Basteroid - Schicking Data Per Post
TTITLE10=Bastards of Love - Wheel of Passion
TTITLE11=The Customers - Furious Sail Away
TTITLE12=Boys Noize - Volta82
TTITLE13=Trentemoller - Beta Boy
TTITLE14=Mickey Oliver - Intensity
TTITLE15=Black Strobe - Abwehr Disco
TTITLE16=Huntemann - 50.1
TTITLE17=Black Strobe - Deceive - Play
EXTD=
EXTT0=
EXTT1=
EXTT2=
EXTT3=
EXTT4=
EXTT5=
EXTT6=
EXTT7=
EXTT8=
EXTT9=
EXTT10=
EXTT11=
EXTT12=
EXTT13=
EXTT14=
EXTT15=
EXTT16=
EXTT17=
PLAYORDER=
